<svg id="Capa_1" enable-background="new 0 0 512 512" height="512" viewBox="0 0 512 512" width="512" xmlns="http://www.w3.org/2000/svg"><g><g><path d="m314.589 131.246h93.045c4.192 0 7.948 2.589 9.44 6.505l46.01 120.775 35.184 14.589c3.773 1.564 6.233 5.247 6.233 9.331v109.422h-189.912z" fill="#ffe07d"/></g><g><path d="m7.5 48.412h307.089v343.455h-307.089z" fill="#dddaec"/></g><g><path d="m100.435 159.53h121.22v121.22h-121.22z" fill="#ecc373"/></g><g><path d="m290.346 48.412v309.11c0 5.579-4.523 10.102-10.102 10.102h-103.961c-13.889-23.552-39.511-39.396-68.777-39.396s-54.887 15.844-68.777 39.396h-31.229v24.244h307.089v-343.456z" fill="#d0cee7"/></g><g><path d="m473.271 367.624c-13.889-23.552-39.511-39.396-68.777-39.396-29.265 0-54.887 15.844-68.777 39.396h-21.128v24.244h189.911v-24.244z" fill="#ffd064"/></g><g><path d="m472.175 300.953h32.325v32.325h-32.325z" fill="#ccf49f"/></g><g><path d="m472.175 300.953h-32.325l10.101 32.325h22.224z" fill="#cb5769"/></g><g><path d="m7.5 391.868h497v32.325h-497z" fill="#ccf49f"/></g><g><path d="m324.691 408.03c0 5.536.569 10.941 1.647 16.163h178.162v-32.325h-178.162c-1.078 5.221-1.647 10.626-1.647 16.162z" fill="#b3e59f"/></g><g><path d="m7.5 424.193h178.162c1.078-5.221 1.647-10.627 1.647-16.163s-.569-10.941-1.647-16.163h-178.162z" fill="#b3e59f"/></g><g><circle cx="404.494" cy="408.03" fill="#407093" r="55.559"/></g><g><path d="m435.161 361.706c5.831 8.79 9.234 19.329 9.234 30.667 0 30.684-24.875 55.559-55.559 55.559-11.338 0-21.877-3.404-30.667-9.234 9.949 14.998 26.978 24.892 46.325 24.892 30.684 0 55.559-24.875 55.559-55.559 0-19.347-9.894-36.376-24.892-46.325z" fill="#365e7d"/></g><g><circle cx="404.494" cy="408.03" fill="#dddaec" r="16.163"/></g><g><circle cx="107.506" cy="408.03" fill="#407093" r="55.559"/></g><g><path d="m138.173 361.706c5.831 8.79 9.234 19.329 9.234 30.667 0 30.684-24.875 55.559-55.559 55.559-11.338 0-21.877-3.404-30.667-9.234 9.949 14.998 26.978 24.892 46.325 24.892 30.684 0 55.559-24.875 55.559-55.559 0-19.347-9.894-36.376-24.892-46.325z" fill="#365e7d"/></g><g><circle cx="107.506" cy="408.03" fill="#dddaec" r="16.163"/></g><g><path d="m392.319 163.571h-45.404v94.955h81.577z" fill="#bed8fb"/></g><g><path d="m177.207 199.937-16.162-6.061-16.163 6.061v-40.407h32.325z" fill="#f4e2c1"/></g><g><path d="m189.329 240.925h-56.569c-4.143 0-7.5 3.358-7.5 7.5s3.357 7.5 7.5 7.5h56.569c4.143 0 7.5-3.358 7.5-7.5s-3.357-7.5-7.5-7.5z"/><path d="m501.141 266.182-32.203-13.343-10.369-27.209c-1.476-3.871-5.81-5.812-9.68-4.337s-5.813 5.809-4.338 9.679l11.521 30.23c.735 1.928 2.231 3.468 4.138 4.258l35.177 14.575c.98.409 1.614 1.357 1.614 2.417v11.002h-57.15c-2.386 0-4.63 1.135-6.043 3.058s-1.827 4.402-1.115 6.679l10.102 32.326c.979 3.131 3.878 5.263 7.158 5.263h47.047v43.589h-34.071c-9.379-23.076-32.031-39.396-58.435-39.396-26.405 0-49.057 16.32-58.436 39.396h-23.968v-245.628h85.54c1.089 0 2.043.657 2.432 1.679l22.029 57.84c1.475 3.872 5.809 5.814 9.679 4.339 3.87-1.474 5.813-5.807 4.339-9.678l-22.027-57.835c-2.58-6.786-9.191-11.345-16.451-11.345h-85.54v-75.33c0-4.142-3.357-7.5-7.5-7.5h-307.091c-4.143 0-7.5 3.358-7.5 7.5v71.88c0 4.142 3.357 7.5 7.5 7.5s7.5-3.358 7.5-7.5v-64.38h292.09v328.457h-141.149c-9.379-23.076-32.031-39.396-58.436-39.396-26.404 0-49.056 16.32-58.435 39.396h-34.07v-229.077c0-4.142-3.357-7.5-7.5-7.5s-7.5 3.358-7.5 7.5v268.902c0 4.142 3.357 7.5 7.5 7.5h41.571c9.379 23.077 32.031 39.396 58.435 39.396 26.406 0 49.058-16.321 58.437-39.398h120.967c4.143 0 7.5-3.358 7.5-7.5s-3.357-7.5-7.5-7.5h-116.954c.391-2.833.609-5.721.609-8.661s-.218-5.829-.61-8.663h172.088c-.391 2.834-.61 5.723-.61 8.663 0 2.939.218 5.827.609 8.661h-20.132c-4.143 0-7.5 3.358-7.5 7.5s3.357 7.5 7.5 7.5h24.147c9.379 23.078 32.031 39.398 58.437 39.398 26.404 0 49.056-16.32 58.435-39.396h41.571c4.143 0 7.5-3.358 7.5-7.5v-141.742c0-7.136-4.258-13.52-10.859-16.269zm-486.141 150.511v-17.325h30.057c-.391 2.834-.61 5.723-.61 8.663s.218 5.829.61 8.663h-30.057zm92.506 39.396c-26.5 0-48.059-21.559-48.059-48.059s21.559-48.059 48.059-48.059 48.06 21.559 48.06 48.059c-.001 26.5-21.56 48.059-48.06 48.059zm342.545-147.636h14.624v17.325h-9.21zm29.624 17.325v-17.325h17.325v17.325zm-75.181 130.311c-26.5 0-48.06-21.559-48.06-48.059s21.56-48.059 48.06-48.059 48.059 21.559 48.059 48.059-21.559 48.059-48.059 48.059zm92.506-39.396h-30.057c.391-2.834.61-5.723.61-8.663s-.218-5.829-.61-8.663h30.057z"/><path d="m404.494 384.367c-13.048 0-23.663 10.615-23.663 23.663s10.615 23.663 23.663 23.663c13.047 0 23.662-10.615 23.662-23.663s-10.615-23.663-23.662-23.663zm0 32.326c-4.776 0-8.663-3.886-8.663-8.663s3.887-8.663 8.663-8.663 8.662 3.886 8.662 8.663-3.885 8.663-8.662 8.663z"/><path d="m107.506 384.367c-13.047 0-23.662 10.615-23.662 23.663s10.615 23.663 23.662 23.663c13.048 0 23.663-10.615 23.663-23.663s-10.615-23.663-23.663-23.663zm0 32.326c-4.776 0-8.662-3.886-8.662-8.663s3.886-8.663 8.662-8.663 8.663 3.886 8.663 8.663-3.887 8.663-8.663 8.663z"/><path d="m392.318 156.071h-45.403c-4.143 0-7.5 3.358-7.5 7.5v94.955c0 4.142 3.357 7.5 7.5 7.5h81.577c2.467 0 4.775-1.213 6.176-3.244 1.399-2.031 1.711-4.621.833-6.926l-36.174-94.955c-1.108-2.908-3.896-4.83-7.009-4.83zm-37.903 94.955v-79.955h32.734l30.46 79.955z"/><path d="m221.654 288.25c4.143 0 7.5-3.358 7.5-7.5v-121.22c0-4.142-3.357-7.5-7.5-7.5h-121.22c-4.143 0-7.5 3.358-7.5 7.5v121.22c0 4.142 3.357 7.5 7.5 7.5zm-69.272-121.22h17.325v22.084l-6.028-2.261c-1.699-.637-3.568-.637-5.268 0l-6.029 2.261zm-44.447 0h29.447v32.907c0 2.46 1.206 4.763 3.228 6.165 1.273.882 2.767 1.335 4.273 1.335.887 0 1.779-.157 2.633-.478l13.529-5.073 13.528 5.073c2.307.865 4.886.543 6.905-.858 2.022-1.401 3.229-3.705 3.229-6.165v-32.906h29.447v106.22h-106.22v-106.22z"/></g></g></svg>