<svg id="Capa_1" enable-background="new 0 0 512 512" height="512" viewBox="0 0 512 512" width="512" xmlns="http://www.w3.org/2000/svg"><g><path d="m504.5 101.47v270.65c0 5.53-4.48 10-10 10h-366.04c-5.52 0-10-4.47-10-10v-270.65c0-5.53 4.48-10 10-10h366.04c5.52 0 10 4.47 10 10z" fill="#fddaa9"/><path d="m232.78 382.12h-104.32c-5.52 0-10-4.47-10-10v-73.64h89.34c11.36 0 20.58 9.21 20.58 20.58s-9.22 20.58-20.58 20.58h-65.23z" fill="#fccd8a"/><path d="m504.5 101.47v270.65c0 5.53-4.48 10-10 10h-19.33c5.52 0 10-4.47 10-10v-270.65c0-5.53-4.48-10-10-10h19.33c5.52 0 10 4.47 10 10z" fill="#fccd8a"/><g><path d="m228.379 301.56c0 11.367-9.215 20.582-20.582 20.582h-65.223l108.162 50.934 63.834-7.983c13.845-1.731 27.276 5.46 33.512 17.942 2.934 5.874-.467 12.937-6.889 14.306l-108.799 23.192-167.5-49.196v-90.359h142.902c11.368 0 20.583 9.215 20.583 20.582z" fill="#ffa792"/><path d="m349.15 387.52c0 4.54-3.12 8.79-7.96 9.82l-108.8 23.19-167.5-49.19v-15.48l162.87 47.83 105.78-22.55c3.96-.84 6.74-3.92 7.5-7.51 2.84 2.64 5.24 5.8 7.04 9.41.73 1.46 1.07 2.98 1.07 4.48z" fill="#f69583"/><g><path d="m54.688 400.685h-37.148c-5.545 0-10.04-4.495-10.04-10.04v-105.627c0-5.545 4.495-10.04 10.04-10.04h47.188c5.545 0 10.04 4.495 10.04 10.04v95.587c0 11.09-8.99 20.08-20.08 20.08z" fill="#70d9e6"/><path d="m74.77 285.02v95.59c0 11.09-8.99 20.08-20.08 20.08h-18c11.09 0 20.08-8.99 20.08-20.08v-95.59c0-5.55-4.5-10.04-10.04-10.04h18c5.54 0 10.04 4.49 10.04 10.04z" fill="#3ad1e0"/></g></g><path d="m451 245.5h-117.926c-2.761 0-5-2.239-5-5v-149.034h127.926v149.034c0 2.761-2.239 5-5 5z" fill="#f8f3f1"/><path d="m456 91.47v149.03c0 2.76-2.24 5-5 5h-18.04c2.76 0 5-2.24 5-5v-149.03z" fill="#efe2dd"/><path d="m179.151 209.682-14.744 24.517c-2.004 3.333.396 7.577 4.285 7.577h29.488c3.889 0 6.289-4.244 4.285-7.577l-14.744-24.517c-1.944-3.231-6.627-3.231-8.57 0z" fill="#fb9927"/><g><path d="m494.5 83.966h-188.5c-4.143 0-7.5 3.358-7.5 7.5s3.357 7.5 7.5 7.5h14.574v141.534c0 6.893 5.607 12.5 12.5 12.5h117.926c6.893 0 12.5-5.607 12.5-12.5v-94.5c0-4.142-3.357-7.5-7.5-7.5s-7.5 3.358-7.5 7.5v34h-112.926v-81.034h112.926v13.034c0 4.142 3.357 7.5 7.5 7.5s7.5-3.358 7.5-7.5v-13.034h31c1.379 0 2.5 1.122 2.5 2.5v270.657c0 1.378-1.121 2.5-2.5 2.5h-142.724c-8.48-12.145-23.135-18.848-38.136-16.972l-61.676 7.713-75.858-35.723h31.692c15.484 0 28.082-12.598 28.082-28.082s-12.598-28.082-28.082-28.082h-81.833v-172.011c0-1.378 1.122-2.5 2.5-2.5h143.535c4.143 0 7.5-3.358 7.5-7.5s-3.357-7.5-7.5-7.5h-143.536c-9.649 0-17.5 7.851-17.5 17.5v172.012h-33.061c-3.217-3.669-7.924-6-13.176-6h-47.187c-9.671 0-17.54 7.869-17.54 17.54v19.648c0 4.142 3.358 7.5 7.5 7.5s7.5-3.358 7.5-7.5v-19.648c0-1.4 1.14-2.54 2.54-2.54h47.188c1.4 0 2.54 1.14 2.54 2.54v95.587c0 6.937-5.644 12.58-12.58 12.58h-37.148c-1.4 0-2.54-1.14-2.54-2.54v-51.979c0-4.142-3.358-7.5-7.5-7.5s-7.5 3.358-7.5 7.5v51.979c0 9.671 7.869 17.54 17.54 17.54h37.147c13.993 0 25.578-10.478 27.34-23.999l148.254 43.543c.689.202 1.4.304 2.113.304.523 0 1.048-.055 1.563-.165l108.799-23.192c5.348-1.14 9.775-4.619 12.147-9.546.851-1.767 1.378-3.625 1.608-5.507h137.989c9.649 0 17.5-7.851 17.5-17.5v-270.657c0-9.649-7.851-17.5-17.5-17.5zm-46 111.034v43h-112.926v-43zm-107.111 193.624c-.201.419-.698 1.156-1.759 1.383l-106.943 22.796-150.419-44.179v-80.145h125.529c7.213 0 13.082 5.868 13.082 13.082s-5.869 13.082-13.082 13.082h-65.223c-10.752 0-20.536 6.342-24.925 16.158-1.691 3.781.004 8.217 3.785 9.908.995.445 2.034.655 3.057.655 2.868 0 5.605-1.654 6.851-4.44 1.775-3.97 5.51-6.671 9.758-7.185l106.439 50.124c1.285.605 2.717.834 4.126.657l63.834-7.983c10.671-1.331 21.067 4.233 25.872 13.852.486.967.22 1.816.018 2.235z"/><path d="m35.277 379.196c4.142 0 7.5-3.358 7.5-7.5s-3.358-7.5-7.5-7.5h-1.008c-4.142 0-7.5 3.358-7.5 7.5s3.358 7.5 7.5 7.5z"/><path d="m357.996 164.5h65.004c4.143 0 7.5-3.358 7.5-7.5s-3.357-7.5-7.5-7.5h-65.004c-4.143 0-7.5 3.358-7.5 7.5s3.358 7.5 7.5 7.5z"/><path d="m357.996 138.5h16.004c4.143 0 7.5-3.358 7.5-7.5s-3.357-7.5-7.5-7.5h-16.004c-4.143 0-7.5 3.358-7.5 7.5s3.358 7.5 7.5 7.5z"/><path d="m357.996 223.5h1.004c4.143 0 7.5-3.358 7.5-7.5s-3.357-7.5-7.5-7.5h-1.004c-4.143 0-7.5 3.358-7.5 7.5s3.358 7.5 7.5 7.5z"/><path d="m381.496 223.5h1.004c4.143 0 7.5-3.358 7.5-7.5s-3.357-7.5-7.5-7.5h-1.004c-4.143 0-7.5 3.358-7.5 7.5s3.358 7.5 7.5 7.5z"/><path d="m404.996 223.5h1.004c4.143 0 7.5-3.358 7.5-7.5s-3.357-7.5-7.5-7.5h-1.004c-4.143 0-7.5 3.358-7.5 7.5s3.358 7.5 7.5 7.5z"/><path d="m428.496 223.5h1.004c4.143 0 7.5-3.358 7.5-7.5s-3.357-7.5-7.5-7.5h-1.004c-4.143 0-7.5 3.358-7.5 7.5s3.358 7.5 7.5 7.5z"/><path d="m183.436 175.325c4.142 0 7.5-3.358 7.5-7.5v-19.328l4.38 4.118c3.019 2.838 7.765 2.691 10.602-.326 2.837-3.018 2.691-7.764-.326-10.602l-17.018-16.001c-2.888-2.715-7.389-2.715-10.275 0l-17.018 16.001c-3.018 2.837-3.164 7.583-.326 10.602 1.476 1.57 3.468 2.362 5.465 2.362 1.842 0 3.688-.675 5.136-2.036l4.38-4.119v19.329c0 4.142 3.357 7.5 7.5 7.5z"/><path d="m244.667 175.325c4.142 0 7.5-3.358 7.5-7.5v-19.329l4.38 4.119c1.448 1.362 3.294 2.036 5.137 2.036 1.996 0 3.989-.793 5.465-2.362 2.838-3.018 2.691-7.764-.326-10.602l-17.018-16.001c-2.888-2.715-7.388-2.715-10.275 0l-17.018 16.001c-3.018 2.837-3.164 7.584-.326 10.602 2.837 3.018 7.583 3.164 10.602.326l4.38-4.118v19.328c-.001 4.142 3.356 7.5 7.499 7.5z"/><path d="m157.811 242.929c2.214 3.915 6.383 6.347 10.881 6.347h29.488c4.497 0 8.667-2.432 10.88-6.346 2.214-3.915 2.149-8.741-.168-12.596l-14.744-24.517c-2.281-3.793-6.285-6.058-10.711-6.058-4.426 0-8.431 2.265-10.712 6.058l-14.744 24.518c-2.32 3.853-2.384 8.68-.17 12.594zm25.625-25.819 10.323 17.166h-20.647z"/><path d="m456 309c4.143 0 7.5-3.358 7.5-7.5s-3.357-7.5-7.5-7.5h-35.339c-4.143 0-7.5 3.358-7.5 7.5s3.357 7.5 7.5 7.5z"/><path d="m320.574 327.862c0 4.142 3.357 7.5 7.5 7.5h127.926c4.143 0 7.5-3.358 7.5-7.5s-3.357-7.5-7.5-7.5h-127.926c-4.142 0-7.5 3.358-7.5 7.5z"/></g></g></svg>